<svg xmlns="http://www.w3.org/2000/svg" version="1" viewBox="0 0 907.000000 712.000000"><path d="M466 7.9c-10 3.5-22.1 8.7-30.8 13.2-7.9 4.1-15.8 8.1-17.5 9.1-1.8.9-4.9 1.9-6.9 2.2-2 .3-4.4 1.3-5.2 2.2-1.4 1.4-1.8 1.2-3.6-1.8-1.1-1.8-2-3.6-2-4 0-.4-2-1.9-4.5-3.3-4.4-2.7-4.5-2.7-20.9-2.1-9.1.3-17.2.9-18 1.2-.9.3-1.6.1-1.6-.5 0-.7-3.1-1.1-9-1.1h-9l-5.3 5.3c-4.3 4.4-6.4 7.7-11.1 18.1-3.1 7-7.3 14.9-9.2 17.6-4 5.5-13.6 13.6-24.1 20.4-4 2.5-7.3 4.8-7.3 5.1 0 .6 5 0 11.3-1.4 3-.7 6.1-.8 8.8-.2 5.1 1.2 5.7 1.8 3.4 3.5-1 .7-1.5 1.8-1.2 2.4.4.5-1.6 2.3-4.5 4-2.9 1.6-7.2 4.4-9.5 6-4.6 3.4-4.8 5.3-.9 10.5 1.5 2.1 1.8 3.3 1 5.3-.8 2.2-3 3.3-18.4 8.5-19.9 6.7-20.8 6.7-25.9-.3-3.2-4.4-9.1-8.8-11.5-8.8-.9 0-1.6-.4-1.6-.9 0-1.3-6-2.5-7.1-1.4-1.7 1.7 0 3.8 5.6 7.1 3.5 2.1 5.7 4.2 6.1 5.7.9 3.5-.2 4.6-3.2 3.5-1.4-.6-4.7-1-7.4-1-4.2 0-5.2.4-6.6 2.5-.9 1.4-2.5 2.5-3.6 2.5-3.3 0-5.8 1.9-5.8 4.5 0 1.9 1 3 4 4.5 4.8 2.5 5.2 4.1.7 3.3-3.7-.6-11.3 1.2-12.3 2.9-.4.6.1 1.5 1 2 2.4 1.3 2 2.5-1.1 3.3-1.6.3-6.4 2.3-10.8 4.4-4.4 2.1-11 5.2-14.7 6.9-3.7 1.8-7.3 3.2-8.1 3.2-.8 0-2.7-1.7-4.3-3.8-8.3-10.9-15.8-18.2-18.9-18.2-3.6 0-7.1 1.9-8.6 4.6-.8 1.5-2.1 2.4-3.6 2.4-5.8 0-12.9 5.3-11.6 8.7.5 1.2 1.9 1.3 7.8.8l7.3-.7 2.7 4.6c1.5 2.6 2.5 5 2.1 5.3-.3.4-2.4-.3-4.5-1.5-2.8-1.6-5.9-2.3-11.2-2.4l-7.4-.3v8l-5.8.6c-6.6.7-7 .9-6.9 4.3 0 2-.8 2.8-3.4 3.8-2.4.8-3 1.5-2.1 2.1.8.6.7.7-.5.3-2.2-.7-19.1 5.7-18.1 6.9.5.4.3.5-.4.2-.6-.4-5.6.8-11 2.7-5.4 1.9-17.2 5.8-26.3 8.6-17 5.3-19.9 6.2-25 8.1-2.9 1.1-3 1.3-3 8.1 0 3.8.5 7.9 1.1 9.1 1.7 3.3 10.1 11.7 11.7 11.7.8 0 16.1-7.3 34.1-16.2 17.9-8.8 39.7-19.6 48.5-24 8.7-4.3 16.4-7.8 17.1-7.8.6 0 2.5 1.7 4.2 3.8 2 2.5 4.6 4.3 7.4 5.2 2.4.8 6.9 2.6 9.9 4 3 1.5 7 3.2 8.8 4 1.8.7 2.9 1.6 2.4 1.9-1.6 1-3.4 5.1-2.2 5.1.5 0 1 .5 1 1.1 0 .6-.6.9-1.4.6-2.9-1.1 1.7 7.3 7.9 14.6 7.7 9 13 13.7 15.5 13.7 1.1 0 2 .6 2 1.2.1 2.5 25.5 28.7 34.5 35.5 7.4 5.6 37.3 20.6 44 22.1 6.6 1.5 20.9 3.2 26.4 3.2 3.9 0 5.1-.6 11-5.8 3.6-3.1 13-12.2 20.8-20.1 7.8-7.9 13.9-13.5 13.7-12.4-.4 1.5.3 2.1 3.8 3 5.2 1.5 13.8 8.4 15.6 12.7 1.6 3.6 1 14.4-1.3 21.9l-1.4 4.8 3 .6c5.9 1.2 4.9 3.7-3.4 8.3-12.5 6.8-13.9 7.8-12.7 10 .6 1.1 1.7 2 2.5 2 3.3 0 1.1 3.3-4.7 7.1-7.2 4.6-18.6 10.3-37.3 18.5-7.1 3.1-17.3 7.6-22.6 9.9-16.7 7.4-46.5 25.3-52.6 31.7-4.4 4.7-7.6 14.4-6.5 19.5.8 3.4.5 4.9-2.4 11-1.8 3.9-5.1 14.3-7.4 23-2.2 8.7-6.1 23-8.5 31.8-2.5 8.8-5.8 22.5-7.5 30.4-1.6 8-3.5 14.8-4.2 15.3-.7.4-5.2.8-10 .8-4.9 0-8.8.3-8.8.7 0 .4 1.4 5.1 3.2 10.4l3.2 9.7-2.8 7.1c-3 7.8-7.9 12.9-15.1 16.1-8.7 3.8-8.2 4.4-7.2-7.7.9-11.9.7-13.9-2.3-17.3-4.4-5-12.2-13.1-13-13.3-.6-.2-9 10.7-12.6 16.4-.9 1.4-1.1 4.5-1.3 18.8l-.1 8.3-3.2-.6c-4.5-.8-9.3-6.3-11.2-12.5-1.4-4.8-1.4-5.7.4-12.8 1.1-4.2 2-7.9 2-8.2 0-.3-2 1.6-4.4 4.3-4.1 4.4-4.6 5.6-6.2 14.3-2.4 12.5-1.2 18.3 6.3 32.6 1.4 2.7 2.2 5.1 1.9 5.4-1.2 1.2-12 5.2-12.7 4.7-.5-.2-.5-1.5 0-2.7 1.5-4.2 2.1-7.7 1.3-7.7-.5 0-2.1 2.7-3.6 5.9-3.2 6.9-5.6 9.7-4.8 5.5.2-1.4 0-2.9-.6-3.3-.5-.3-1.6-2.2-2.4-4.1l-1.4-3.5-1.3 5c-1.2 4.7-1.4 4.9-2.7 3.1-.8-1.1-1.4-3.1-1.5-4.5-.1-2.4-.2-2.3-1 .6-1.2 4.2-2.3 4.2-4 .1-1.5-3.7-6-11-6.5-10.5-.2.2.5 2.8 1.6 5.8 2.8 7.5 2.6 8.8-.7 5.8-5.7-5.1-6-4.9-2.7 1.6 1.8 3.6 3.2 6.5 3 6.5-.2 0-3.7-3.5-7.7-7.7-4.1-4.3-8.8-9.2-10.5-10.9-4.3-4.1-6.3-8.4-5.7-11.7.6-3.2.5-3.1 4.4-1.2 1.8 1 3.6 3.1 4.5 5.6 1.9 4.7 3.3 4.6 4.9-.2.7-2 1.9-3.5 3.1-3.7 1-.2 3-1.7 4.3-3.4 2.4-3 2.4-3.1.5-4.5-1.8-1.3-1.8-1.5.9-6.2 1.5-2.7 2.7-5.2 2.7-5.5 0-.3-2.2.8-4.9 2.4l-4.9 3-4.8-2.1c-3.4-1.4-5.8-1.8-7.9-1.4-1.6.4-4.9.8-7.3 1-2.3.1-4.5.5-4.8.8-.3.3.3 2.3 1.4 4.4 1.2 2.1 2.3 5.4 2.5 7.3.2 1.9 1.2 5.6 2.3 8.2 1 2.6 1.5 5.1 1 5.5-.4.4-3.5-.2-6.8-1.5-3.4-1.2-6.3-2-6.5-1.8-.3.2 2.1 1.9 5.3 3.8 3.1 1.8 5.5 3.8 5.3 4.3-.2.6-3.4 1-7.1 1-4 0-7.2.5-7.9 1.3-.7.6-2.1 1.2-3.1 1.2-3.1 0-6.6 2.9-8.2 7-.9 2.3-3.1 5-5.5 6.7-2.2 1.5-4.1 3.1-4.1 3.6 0 .4 1.1 1.3 2.5 1.9 1.4.6 2.5 1.9 2.5 3 0 1 .6 1.8 1.4 1.8.8 0 1.6.6 1.9 1.4.9 2.2 8.7 2.6 10 .5 1-1.6 1.4-1.6 4-.3 1.6.9 3.1 1.4 3.3 1.2.2-.3-.8-2.7-2.2-5.5l-2.5-5.1 2-3.2c1.3-2.3 1.7-4.3 1.4-7-.4-3-.2-4 1.4-4.8 2.3-1.3 17.9-1.9 19-.8.4.4-1.2 2.6-3.7 4.8-4.4 3.9-4.4 3.9-.9 1.9 4.5-2.6 10.1-2.7 15.5-.2 5.1 2.3 6.9 4.6 3 3.9-3.5-.7-3.3-.2.9 1.8 2.1 1 3.5 2.4 3.5 3.4s.3 2.6.7 3.6c.5 1.5.1 1.6-4.2 1-2.6-.4-5.5-1-6.4-1.3-.9-.4-.5.3.8 1.4 3 2.5 2.2 3.9-3.5 6.5-2.4 1-4.4 2-4.4 2.2 0 .1 2.8-.3 6.2-1 3.5-.7 6.6-1 7-.6.3.4-3.5 6.2-8.5 12.8-5.1 6.7-10.1 13.9-11.3 16-1.1 2.2-3.5 6.3-5.2 9.2-3.5 5.7-3.4 6.2.8 3.2 7.8-5.6 49-25 52.9-25 1.8 0 1.2 1.4-1.1 2.9-1.3.8-6.9 5.2-12.6 9.9-7.5 6.3-9.9 8.8-9 9.5 1 .6.9.7-.4.4-1-.4-3.1.8-5.5 2.9-3.4 3.1-3.5 3.4-1.3 2.8 1.4-.3 5.2-1.7 8.6-3 3.3-1.3 6.5-2.4 7.1-2.4 1.1 0 1.4 2.6 1.4 14.1v6.6l13.7.9c21.6 1.4 27.1 1.1 32.6-1.7 2.7-1.3 5.6-3.3 6.5-4.5 1-1.3 2.8-2.1 4.4-2.1 3.5-.1 8.7-2.2 11-4.4 1.1-1.2 1.7-3.4 1.7-6.8v-5l4.1.1c3.3 0 3.9.3 3.3 1.7-2.1 5-1.7 5.9 4 9.6l5.6 3.8-4.7 5.1-4.6 5.1 5.9.3c3.3.1 12.2.9 19.9 1.7 16.3 1.6 24.7.9 34.3-2.9l6.4-2.5-.7 2.7c-1.4 5.6-3.1 7.8-8.5 10.5-5.1 2.6-6.1 2.8-14 2.2-4.7-.3-10.3-.8-12.5-1.2-6.1-.9-3.4.8 3.7 2.3 8.1 1.7 14 1.7 20.4 0 6.5-1.7 9.8-3.9 12.5-8.3 2.5-4 2.1-9.9-1.1-14.3-1.1-1.5-1.7-3-1.4-3.3.3-.3 0-2.3-.6-4.5-1-4-5.9-8.9-10.5-10.6-5-1.9 3.2-2.6 34-3.2 27-.6 32.7-.5 32.3.6-.4 1.3-13.2 10-17.5 11.9-1.3.6-2.3 1.7-2.3 2.5 0 1.5-2.7 2.9-3.4 1.7-.3-.4-.5-2.6-.4-4.9.1-5.3-2.3-8.2-6.7-8.2-1.8 0-4.5 1-6 2.2-2.9 2.2-2.9 2.1-.9 12.4.6 3 .4 3.1-5.5 5.4-3.4 1.2-6.1 2.5-6.1 2.9.1.3 3.7 3 8.1 6 8.3 5.6 10.2 7.7 7.9 9.1-.7.4-1 1.3-.6 1.9.7 1.1 5.7.5 8.7-1 1.1-.5 3.2-.1 6 1.3 4.5 2.2 6.6 2.5 22.7 3.2 8.3.3 9.2.2 8.7-1.3-.3-.9.1-2.6.9-3.7 1.2-1.6 2.5-1.9 9.3-1.7 17 .5 27.9-6.9 36.9-25 3.3-6.5 2.8-6.1-3.4 3.3-8.2 12.3-11.7 15.5-19.6 17.9-6.4 2-9.8 2.1-15.8.5-.9-.3-1.9-1.9-2.3-3.7-1.2-6.3-4.9-12-9.5-14.9-3.8-2.5-5.4-2.9-10.5-2.7-3.3.1-6.6.1-7.4 0-2.1-.2-.5-1.4 2.1-1.7 1.3-.1 5-.7 8.3-1.3 3.3-.6 12.3-1.8 20-2.6 7.7-.9 18.1-2.1 23-2.7 11-1.4 48.1-1.8 56.2-.7 3.2.4 13 .9 21.8 1 27.7.4 69.2 3.4 108.5 8 11.1 1.3 78.8.6 103-1.1 14.3-.9 32.7-3.1 42.5-4.9 3.8-.7 3.7-.7-3-1.4-3.8-.4-10.5-1-14.7-1.3-4.3-.4-7.8-1-7.8-1.5 0-.4 1.2-1.7 2.7-2.9 2.3-1.8 3.6-2.1 8.3-1.6 7.8.9 14.8 1.5 28.5 2.6 6.6.6 15.1 1.4 19 1.9 3.8.6 7.1.8 7.3.6.2-.1-1.5-1.6-3.7-3.1-2.2-1.6-4.1-3.2-4.1-3.5 0-1.4 4.9-1.9 17.5-1.9 22.3 0 38.6 2.2 73.5 10 6.7 1.5 14.3 3 15.2 3 1.3 0-3.4-3.8-11-8.9-9.9-6.7-8.4-7 16.8-4.1 10.9 1.3 24.6 4.9 47.6 12.6 8.9 3 17 5.4 18 5.4 2.4-.1-6.6-8.5-15.1-14.2-5.1-3.4-5.6-3.9-3-3.5 1.7.3 6.4 1.5 10.5 2.7 7.9 2.3 20.1 5.6 26 7 1.9.4 5.4 1.5 7.8 2.3 2.3.9 4.2 1.3 4.2.9 0-.8-3.2-2.7-16-9.5-5.2-2.7-9.9-5.4-10.5-6-.7-.6 4.2-.7 14-.3l15 .6-5.2-2.9c-2.9-1.6-8.6-4.2-12.5-5.7-8.5-3.2-11.3-5.4-12.8-10-1-2.8-.8-3.8.7-5.8 1-1.4 2.1-2.6 2.5-2.6 1.7 0 6.8-5.4 6.8-7.1 0-1 .7-1.9 1.5-1.9.9 0 1.6-1.4 2-3.8.7-3.9 3.5-10.2 4.6-10.2.3 0 2.1 3.2 3.9 7.1 2.6 5.7 3.9 7.4 6.6 8.5 4.8 2 6.1 1.7 3.7-.9-2.4-2.6-4.7-14.4-3.7-19.1 1.4-6.8 4.2-7.3 9.6-1.4 2.1 2.3 3.8 3.6 3.8 3 0-.5.3-1.7.6-2.5.3-.9-1.3-3.6-4.1-6.7-4.5-5-4.6-5.4-4.4-10.8.2-3.1.9-6.9 1.7-8.4 1.1-2.3 1.1-3.2 0-5.5-1.1-2.4-2-2.9-5.8-3.1-5.2-.4-7 1.3-7 6.5 0 3.1-.2 3.3-3.4 3.3-2.6 0-4.3-.8-6.8-3.4-6.9-7-9.3-10.2-10.5-14.6-1-3.8-1-5.2.4-9.2 1.4-4 1.5-5.8.5-13-.7-4.5-1.2-10.7-1.2-13.6 0-4.2-.8-6.9-4.1-13.4-2.2-4.5-5-8.9-6.2-9.8-2.2-1.8-1.6-4.3.8-3.3 1.1.3 1.5-.2 1.5-1.8l.1-2.4 1.2 2.2 1.2 2.1 3.4-2.8c3.2-2.7 3.3-2.9 2.1-6.5-.7-2-.9-3.9-.6-4.2.3-.4 1.1.8 1.7 2.5.6 1.8 1.5 3.2 2 3.2 1 0 1.2-2 .9-11-.3-8.6-4.9-17.9-12-24.4-5.6-4.9-7.2-5.3-21.3-4.6-6.9.3-19.7 5.6-19.7 8.1 0 .5.6.8 1.3.6 1.3-.2 1.3.5.1 3.8-.6 1.6-.5 1.8.7.8 2.3-2.2 3.3-1.4 1.2 1-2 2-2 2.5-.8 6s1.1 4-.7 5.6c-1.3 1.3-1.6 2.1-.9 2.6.6.3.9 1.1.6 1.6-.6.9.8 6.3 2.7 10.5.6 1.2 2.8 2.7 4.9 3.4 4.2 1.4 4.9 3.1 2.1 5.2-2 1.4-9 13-11.5 18.8l-1.4 3.5-5-10.5c-4.7-10-7.6-13.9-13.9-18.6l-2.8-2.1 3.4-1.8c1.9-.9 4.7-2.9 6.2-4.3 2.8-2.6 6.8-11.6 6.8-15.2 0-4.3-5.3-15.6-9-19.2-3.2-3.1-4.6-3.7-10.1-4.3-8.7-.9-22.9 1.8-22.9 4.4 0 .5-.3 1.7-.6 2.5-.5 1.2-.2 1.5 1.1 1 1.6-.6 1.6-.5.1 2.4-.9 1.7-1.6 4.7-1.6 6.6 0 2.4-.6 3.8-1.9 4.5-3.5 1.9-3 11.9.9 20.1.4.8 2.8 2.5 5.4 3.8 4.9 2.3 6 5.3 2.2 6-1 .2-3.4 1.5-5.3 2.8-2 1.3-4.1 2.4-4.8 2.4-2.9 0-3.9-5.6-4.5-25-.6-18.7-1.2-22.4-4.2-26.1-1.5-1.8-10.9-6.8-14.8-7.9-3-.8-3.4-3.7-.5-3.2 5.6 1 9.5.7 9.1-.5-.4-.8.3-1.3 1.9-1.3 3.7 0 3-1.7-1-2.4-5.8-1.1-4.1-2.8 2.5-2.4 5.8.3 7-.6 2-1.5-2.4-.4-2.3-.4.8-1.2 1.7-.4 3.2-1.1 3.2-1.6 0-1.4-3.3-1.1-7.3.6-5 2.1-6.6 1.9-7.9-1-.8-1.9-.8-2.9.4-4.7 3.8-5.9 5.2-22.4 2.2-26.6-2.3-3.4-1.2-4.6 1.9-2.2 2.7 2.1 2.8 2.5 2.7 10.9-.1 4.7.1 9.4.5 10.3 1.5 3.8 2.5 1.5 2.5-5.9v-7.7l4.4 4.3c4.1 4 6.6 4.7 6.6 1.7 0-.7-2-2.7-4.5-4.6-2.5-1.8-4.7-4.1-5-4.9-1.4-4.4-12.9-14.2-13.8-11.9-1 2.5-.7-1.6.4-5.6 1-3.5.9-4.2-.7-5.3-3.3-2.4-7.2-1.6-9 1.9-1.5 3-1.7 3.1-3 1.3-.7-1-1.5-2.3-1.7-2.8-.5-1.7-7.5-1.3-9.4.5-1.4 1.4-1.4 2.1-.3 4.8 1.1 2.7 1.1 3.3-.1 4.1-.8.5-2 .9-2.7.9-1.1 0-15.2 7.9-15.2 8.6 0 .1.9 0 1.9-.3 2-.5 2-.4.1 4.4-1 2.7-1.7 6.6-1.5 8.6.2 2 0 3.7-.5 3.7-1.7 0-2 3.8-.5 6.6.8 1.6 1.5 3.6 1.5 4.4 0 .9.5 2.1 1.1 2.7.6.6 1.6 2.2 2.3 3.4.7 1.5 2.5 2.7 4.9 3.2 2.6.6 3.7 1.4 3.7 2.7 0 1 .3 2.5.6 3.4.4 1 .1 1.6-.7 1.6-.7 0-2.1.8-3.2 1.7-1 1-4.1 2.9-6.9 4.3-4.6 2.3-5.4 3.1-7.6 8.7-2.2 5.5-2.9 6.3-6.8 7.8-4.1 1.5-4.5 1.5-9.3-.6-4.8-2-6-3.2-4.3-4.2.4-.3 3.3.4 6.6 1.4 3.5 1.1 6.4 1.5 7.3 1 1.1-.5.5-.8-1.8-.9-3.3-.1-7.9-2.8-8.7-5-.3-.9 1.3-.6 4.8.7 6.6 2.5 6.1.7-.9-3.4-4.5-2.6-5.6-3.9-7.5-8.7-4.3-10.4-6.1-13.2-10.2-15.3-2.1-1.1-4.1-2.1-4.3-2.3-1-.5 1-1.5 3.2-1.5 1.3 0 4-1.4 6.1-3.2 3.4-2.9 3.7-3.6 3.1-6.7-1-5.3-1.9-6.1-6.6-6.1-3.4 0-5.2-.7-7.9-2.8-1.9-1.6-4.1-2.9-4.8-2.9-2.4 0-4.2 2.8-4.2 6.7-.1 3.3-.2 3.6-1.4 2.1-1-1.3-2.1-1.6-5.1-1.1l-3.8.6 5.9 5.2c5.5 4.9 5.7 5.3 3.8 6.3-1.2.6-4.8 1.5-8.2 2.1-5.3.8-6.6 1.5-9.9 5.2-2.1 2.3-4.2 4.8-4.6 5.6-1.1 1.9 0 3 1.5 1.5 2.1-2.1 2.7-1.3 1.7 2-.5 1.8-.7 5.9-.3 9.1.5 4.8.3 6.2-1.2 7.8-1.5 1.7-1.6 2.4-.6 5.3.7 1.8 1.2 4 1.2 5 0 .9 1.2 3.3 2.6 5.2 1.9 2.5 3.7 3.6 6.5 4 2.2.4 3.9 1 3.9 1.3 0 .4-1.3 1.7-2.8 2.8-2.2 1.6-3.1 3.4-4.1 8.4-1.6 8.2-4.1 13.3-6.6 13.8-1.1.2-3.9 1.4-6.2 2.8-4.8 2.8-5.6 5.7-2.3 8.6 1.1.9 2 2.3 2 3.1 0 .8.5 1.6 1.2 1.8.8.3.6 2-.9 5.9-1.2 3-2.5 7.4-2.9 9.9-.3 2.5-1.1 5-1.6 5.7-1.4 1.8 0 5.1 2.5 5.9 9.3 2.9 12.6 4.7 15.2 8.3 2.6 3.9 2.6 4 1.5 11.3-1.2 6.7-1.1 7.8.9 13.7 3.9 11.4 2.5 31.1-2.7 37.8-3.8 4.9-4.6 8.2-2.4 10 1.5 1.2.7 1.3-5.7.9-7.2-.6-9-1.5-9.1-4.3 0-1.8 3.9-4 8.3-4.8 6-1.1 5.3-2.5-1.2-2.5-3.3 0-6.2-.4-6.5-.9-.3-.4 2.9-4.1 7-8 4.2-4 7.4-7.5 7.1-7.8-.9-.8-5.7 3-12.1 9.6-3.2 3.4-6 6.1-6.1 5.9-.2-.2.5-4 1.4-8.6 1-4.5 1.5-8.2 1.1-8.2-1 0-3.7 5.8-5.5 12.1-2.9 9.8-4.1 10-8.1 1.5-1.3-2.8-2.4-4.7-2.4-4.1 0 1.9 1.8 12 2.5 13.7.6 1.5.1 1.8-3.1 1.8-2.4 0-6.1 1.2-9.5 3-5.8 3-13.9 5-13.9 3.3 0-.5 2.6-3.4 5.8-6.4 5.1-4.8 6.3-6.6 9.1-14.5 1.8-4.9 3.9-13.2 4.7-18.4.7-5.2 2.1-11 3.1-12.9 1.6-3.1 1.9-3.3 5.8-2.6 2.2.4 5.1.7 6.4.7 2.7 0 7.1-2.1 7.1-3.4 0-.4 1.1-3.1 2.5-6 1.4-2.8 2.5-6 2.5-6.9 0-1-2.5-4.5-5.5-7.7-3-3.3-6.8-8.6-8.4-11.8-1.6-3.3-3.8-6.7-4.8-7.6-2.3-2.2-8.8-3.7-18.3-4.5-4.1-.3-10.2-1.5-13.4-2.7-5.5-2-6.3-2.6-11-9.8-2.8-4.2-5.4-7.7-5.8-7.7-.5-.1-2.1 1.7-3.7 3.9l-2.9 4-3.2-2.6c-1.7-1.5-7.4-7.7-12.6-13.9-9.9-11.9-15.5-17.1-23.9-22.2-5.8-3.5-19.4-8.6-27.8-10.4-4.7-1-6.1-1.8-7.7-4.4-2-3.3-2.3-4.4-4-20-1.4-11.8-2.6-19.6-5.1-33-2.4-12.2-2.3-28 .1-32.5 2-3.8 8.3-11 9.5-11 2.1 0 5.1 4.5 6.7 10 2.8 9.5 3.1 12.2 3.2 25.5l.1 13 4.5 7.5c4.1 6.7 5.2 7.8 11 10.8 6.8 3.5 7.1 3.5 18.5 1.6 6.1-1 15.3-6.3 18.9-10.8 5.1-6.4 11.1-16.6 13-22.1 1-2.8 2-8.6 2.3-13l.5-8-4.2-5.5c-7.5-9.9-10.7-12.9-15.2-14.9-7.9-3.4-51.8-39.1-51.8-42.1 0-.5 2.2-1.1 5-1.5 2.7-.4 5.2-1.1 5.5-1.5.3-.5 2.2-1.1 4.3-1.5 4.1-.7 10.6-4.9 15.9-10.3 2.9-2.9 3.6-3.2 9.5-3.2 8.7 0 16.1-2.4 20.8-6.6 2.9-2.6 4.6-3.5 6.7-3.2 2.7.3 2.8.5 2.5 4.9-.2 4.2.1 4.9 2.9 7.3 1.7 1.5 5 3.6 7.2 4.7 4.8 2.5 7.9 2.1 15.1-2 4.8-2.8 5.2-3.4 6.9-9.3 1-3.5 2-6.8 2.2-7.4.5-1.8 20.7-12.5 32.2-17.3L626 267l9.5 7.1c6.7 5 9.4 7.7 9.1 8.8-.3.9-1.9 6.5-3.6 12.6-1.7 6-4.9 16.2-7 22.6-5.6 16.6-12.6 43.6-11.6 44.6.1.2.9-1.6 1.6-3.9 1.5-5.4 10.6-28 20.2-50.8 4.1-9.6 8-19.4 8.8-21.8 1-3.1 1.8-4.2 3.4-4.2 4.1-.1 16.1-1.1 17.3-1.5.8-.3 1.9 1.7 2.9 5.3 9 31.9 15 51 17.3 54.9 1.4 2.5 1.3.5-.4-6.9-1.3-5.6-3-15-8-44.3-.8-5-1.7-10-2-11.1-.4-1.9.8-2.8 8.8-6.8l9.3-4.6 7 2.4c3.8 1.3 9.2 3.5 12.1 4.9 2.8 1.5 9.8 4.5 15.5 6.8 5.7 2.2 12.1 4.9 14.3 5.9 10.5 4.7 13.8 6 14.2 5.6.6-.6-30.2-18-43.7-24.6-6.8-3.3-12.5-6.2-12.7-6.4-.1-.1 2.5-6.4 5.9-13.9l6.1-13.7h7.6c65.3-.1 82.1-.2 82.1-.9 0-.4-5.7-1.3-12.7-1.9-7.1-.7-18.6-2.2-25.8-3.2-13.1-2-39.3-5.5-47.4-6.5-2.4-.3-5-1-5.6-1.5-.7-.6-2.5-5.7-4.1-11.3-1.5-5.6-3.6-11.6-4.7-13.4-2.2-3.8-2.7-2.8 9.8-21.8 5-7.7 10.2-15.8 11.4-18 2.2-3.9 2.1-3.8-3.1 1.7-2.9 3.1-10.2 11-16.1 17.6l-10.9 12-8.3-3.3c-4.6-1.8-10-3.6-12-3.9-2-.4-3.8-1.3-4.1-2.1-.3-.7-.7-15.9-.9-33.7-.2-17.8-.8-35-1.2-38.3l-.8-6-1.8 14.5c-1 8-2.2 17.2-2.7 20.5-.5 3.3-1.2 14.1-1.6 24-.3 9.9-1.1 18.5-1.6 19.2-.5.6-2.4 1.5-4.1 1.8-5.5 1.2-19.2 5.3-23.2 6.9-3.5 1.5-3.9 1.5-5.1-.1-.7-1-5.9-10.8-11.5-21.8s-10.5-20.5-10.9-21c-.4-.6-2.2-4.7-4-9.3-1.8-4.5-3.6-8.5-4.1-8.8-.5-.3-.9-1.4-.9-2.5 0-1-.4-1.9-1-1.9-.5 0-.3 1.7.5 3.7.7 2.1 3.4 9.6 6 16.8 5.4 15.1 13.6 37.1 17.5 46.7l2.7 6.7-2.5 2.3c-6 5.5-12.1 14-13.7 19-1 2.9-1.9 5.5-2.1 5.6-.1.2-2.9-.1-6.1-.8-3.2-.6-10.3-2.1-15.8-3.1-5.5-1.1-11.3-2.4-13-2.9-6.3-1.9-20.7-5-23.2-5-4.3 0-1.6 1.5 9.7 5.3 9.5 3.2 15.1 5.3 33 11.8 3 1.1 7.5 2.8 10 3.6 5.6 1.9 6.6 3.2 8.1 10.2.6 3.1 2.4 8.7 4 12.5 1.6 3.7 2.9 7.3 2.9 8-.1 1-16.9 13.2-29.3 21-4 2.6-5.9 3.3-6.2 2.4-.3-.7-1.1-3.5-1.9-6.1-2-6.6-13.3-21.4-19.4-25.3-2.6-1.7-7.8-4.8-11.7-6.9-3.8-2-9.7-5.6-13-7.8-3.3-2.2-8-5.4-10.5-7.1-2.5-1.6-9.3-7.6-15.2-13.2-11.6-11.2-12.3-11.6-30.8-19.5-21.3-9-25.9-11.8-30.7-18.5-2.3-3.2-4.2-6.7-4.3-7.7 0-.9-.4-1.7-.9-1.7-1.6 0-10.5 4.2-17.1 8.1-9.8 5.8-14.2 7-21.7 6.3-5.2-.6-6.1-.9-5.2-2 .6-.8 2.6-1.4 4.3-1.4 1.7 0 7.8-2.3 13.6-5.1 11.7-5.7 12.3-5.9 19.8-6.6 2.9-.3 5.5-1 5.8-1.5 1.3-2.1-2.3-6.1-8.6-9.8-5.6-3.3-18.5-15.4-25.4-23.7-1.8-2.2-1.8-2.3 1.3-5.8 3.5-4 4.5-8.1 1.4-5.3-2.4 2.1-8.4 5.1-8.9 4.5-.3-.3.6-1.3 1.8-2.3 1.3-1.1 2.8-2.6 3.3-3.4.7-1.3.6-1.3-.7-.2-1 .8-1.9.9-2.2.4-.7-1.2 1.9-2.3 3.7-1.6.7.2 2.4-.7 3.7-2.1 1.7-1.8 1.9-2.4.8-2-1.5.6-1.6.2-.7-3 1.4-4.8.6-5.4-2.2-1.6-1.6 2.2-3.1 3.1-5 3.1s-3.5 1-5.1 3c-2.1 2.7-2.7 2.9-4.9 2.1l-2.4-1h2.6c3.3-.1 6.4-4.2 4.6-6-.6-.6-1.7-1.1-2.3-1.1-.7 0-2.6-1.2-4.3-2.6-2.5-2.1-3.1-3.4-3.1-6.5 0-5.5 2.7-11.8 4.8-11.3 1.3.3 2.5-1.4 5-6.9 1.9-4.1 5.1-9.7 7.3-12.6 4.4-5.7 4.5-6.1 2.5-6.1-.8 0-2.4-1.2-3.5-2.6-2.3-2.9-2.8-8.4-.8-8.4.9 0 .8-.3-.2-.9-2.1-1.3-.3-1.8 9.9-2.6 9-.6 13.5-.3 36 2.7 22.4 2.9 54.9 22.3 61.5 36.6 2.3 4.9 2.5 6.4 2.1 16-.6 16.2-5.1 26-15.8 34.3-3.1 2.4-5.7 4.7-5.8 5.1-.1 1.9 5.6-.1 8.7-3.1 2.5-2.4 3.7-2.7 2.8-.9-.4.7 1.2-.7 3.4-3.1 4.5-5.1 8.5-12.8 9.6-18.6 1-5.5 1.8-6.5 2.7-3 .4 1.6.6-3.5.5-11.5l-.2-14.5-5-6.9c-3-4.3-7.3-8.6-11.2-11.4-4.3-3.1-5.9-4.8-5.1-5.3 1.7-1.1.7-1.9-7.2-6-3.6-1.9-7.1-4.2-7.8-5.1-.7-1-2.9-2-5-2.4-2-.4-4.2-1-4.8-1.5-.6-.5-5.5-2.4-11-4.1-9.8-3.3-10.1-3.3-27-3.1-15.4.2-17.7.4-23.9 2.7-3.8 1.4-7.1 2.3-7.3 2.1-2.4-2.3 8.9-6.4 23.8-8.5 4.1-.6 9.6-1.5 12.2-2.1 11.5-2.6 31.6-3 43.3-1.1 21.5 3.7 29.5 6.6 53 19.4 5 2.7 24.5 22.1 35 34.8 4.4 5.2 8.8 10.4 9.8 11.5 1.9 2 1.9 2 1.3-2-.9-5.1-7-17-11-21.5-5.4-6.1-12.8-16-11.8-16 .5 0 1.7.9 2.7 2 2.7 3 3.8 2.4 2-1-.8-1.6-1.4-3.1-1.3-3.3.2-.1-.3-.9-1-1.7-.7-.8-2.6-3.6-4.2-6.1-4.1-6.2-19.8-20.5-25.4-23-2.5-1.1-6.3-2.2-8.3-2.4-2.1-.3-5.1-.8-6.8-1.1-2.6-.6-2.7-.8-1-1.4 1.6-.5.9-1-3.4-2.5-4.8-1.5-6.6-1.6-17.1-.6-14.2 1.3-20.5 1.4-17.5.1 1.1-.4 4.5-1.5 7.5-2.3l5.5-1.5-9.1-.1c-7.3-.1-10.5.4-16.3 2.4-9.1 3.2-11.5 2.7-3.8-.8 3.1-1.4 5.7-2.9 5.7-3.2 0-.3-.3-.5-.7-.3-4.3 2.1-7 2.9-14.6 4.3-8 1.5-33.5 8.6-35.7 10-.6.3-1 .2-1-.3 0-2.3 35.3-19.6 53.3-26.2 10.3-3.7 13.5-5.2 11-4.9-.5 0-8.2 2.6-17.3 5.8zm-175.7 126c1.8.2.4 3.1-2.2 4.7-1.6 1-3.2 2.6-3.4 3.6-.6 2.1-.3 2.2 2.4.8 3.3-1.8 2.1.6-3.1 6.3-2.7 3-5 5.7-5 6.1 0 1.3 3.8-1 8.5-5.2 6.7-6 13.5-10.6 14.3-9.7.4.4-.8 1.9-2.7 3.4-1.8 1.4-5.7 4.6-8.5 7.1s-6.6 5.6-8.3 6.8c-5.2 3.7-4.2 4.4 5.5 4.1 8.9-.3 13.2 1 13.2 3.9 0 1.4 4.1-.8 7.2-3.9 1.4-1.5 2.2-1.5 4.3-.6 2.5 1.2 3.5 5 1.5 6.2-.5.3-1-.2-1-1.3 0-2.2-.9-3.4-2.1-2.6-.4.2-.1 2.6.6 5.2 1.8 5.7 1.7 5.3.5 5-1.1-.3-5 9.3-5 12.2 0 .8-.4 2.1-.9 2.9-1 1.5-1.6 1-13.5-12.2-7.2-8.1-11.1-10.2-16.7-9-1.7.3-3.5 0-4.5-.8-.9-.7-2.5-1.8-3.7-2.4-1.4-.7-2.6-3.3-4.2-9.7-1.1-4.7-2.7-9.4-3.5-10.3-1.8-2.2-.4-3.1 11-6.6 4.7-1.5 9.6-3.2 11-3.7 1.4-.6 3.6-.9 5-.7 1.4.2 2.8.4 3.3.4zm-59.1 39.4c6.8 4.1 14 8 16.2 8.7 2.1.7 4.7 2.3 5.9 3.6 2.9 3.3 4.5 3 6.4-1.4 1-2 1.8-3.9 2-4.1.1-.1.6 0 1.2.3 1 .7-3.1 8.4-5.2 9.7-1.1.7-1.4 10.8-.5 15.6.4 1.8 2.3 5.3 4.2 7.9 2 2.6 3.6 5 3.6 5.3 0 1.3 5.9 4.1 8.7 4.1 2.1 0 2.4.3 1.3 1-1.1.7-.8 1.1 1.5 2 2.9 1.1 4.8 3.1 7.6 8.3l1.5 2.8 4.6-6.8c2.5-3.8 5.3-8.4 6.3-10.3 1-1.9 2-2.9 2.2-2.3.9 2.6-8.1 16.2-16.6 24.9-9.8 10.3-12.9 12.8-17.6 15.1l-3.4 1.6-9.7-7.8c-5.4-4.3-13.6-9.8-18.3-12.3-9.3-4.8-17.4-12-30.8-27.2-7.9-8.9-12-11.9-16.6-12-2.3 0-3.5-1.2-7.7-7.8-2.7-4.2-5-8.3-5-9 0-.7 1.2-1.8 2.8-2.5 1.5-.6 2.9-1.4 3.2-1.7.3-.3 4.1-1.9 8.5-3.6 4.4-1.8 12.1-4.8 17-6.7 5.3-2.2 10.1-3.4 11.7-3.2 1.5.2 8.2 3.8 15 7.8zm457.9 16.4c9.5 4.5 15.6 12.2 19.9 25.2 4.3 12.7 4.2 17.4-.3 27.5-4.3 9.6-9.1 15.5-19.1 23-10.7 8-13 8.8-26.6 8.9-10.6.1-12-.1-17.5-2.6-3.3-1.6-7.7-4-9.9-5.5-4.7-3.2-12.9-14.6-15.5-21.6-4.4-11.7-3.5-29.5 1.7-36.4 4.2-5.5 14.9-13.9 20.6-16 14.3-5.5 17.7-6.2 29.1-5.9 10 .2 11.6.5 17.6 3.4zM453.9 202c3.2 2.3 7.8 6.4 10.2 9.3 9.6 11.3 19.6 20.7 33.9 31.4 5.2 3.9 12.8 10.4 16.9 14.4 6.9 6.8 15.1 17.8 15.1 20.3 0 .5-5.7-4.6-12.7-11.5-7.1-6.9-17.1-15.7-22.3-19.6-5.9-4.4-12.7-10.8-18-16.9-4.7-5.4-13.4-14.6-19.5-20.6-6-5.9-10.6-10.8-10.2-10.8.5 0 3.5 1.8 6.6 4zm-8.8 41.7c4.7 3.8 11.9 9 15.9 11.8 3.9 2.7 8.4 6.1 9.8 7.4 1.5 1.3 3.6 3.1 4.8 4 2.6 2 5.9 7 5.1 7.7-.9.9-24.6-16-30.7-21.8-9-8.7-15.5-15.8-14.5-15.8.6 0 4.9 3 9.6 6.7zm1.3 57.4c6.8.9 22.6 6.8 22.6 8.4 0 .3-.7 2-1.6 3.7-1.3 2.6-1.8 2.9-2.5 1.6-.6-1-3.2-1.8-8.1-2.2-4-.4-11.2-1.6-15.9-2.6-6.1-1.3-13.6-1.9-25.3-2.1-15.6-.2-20.2-1.1-13.8-2.5 1.5-.3 4.5-1.1 6.7-1.6 13.3-3.4 26.6-4.3 37.9-2.7zm38.2 29.9c2.4 1.7 7.7 6.3 11.8 10.3 10.5 10.3 13.7 13.2 18.1 16.1l3.8 2.6-14.6 14.4c-14.6 14.5-15.7 15.2-15.7 9.4 0-1.2-.9-5.2-2.1-9.1-1.1-3.8-2.2-7.8-2.4-8.9-.2-1-1.3-3.1-2.3-4.6-4.2-5.9-10.1-16.2-9.3-16.2.4 0 3.4 3.7 6.6 8.2 3.3 4.6 6 8.5 6.2 8.7.5.8 3.2-3.3 3.3-4.9 0-.8 1.4-2.7 3.2-4.2l3.3-2.7-2.4-4.7c-1.4-2.5-4.3-6.7-6.6-9.3-8.1-9.2-8.2-10.1-.9-5.1zm-103.5 61c3 8.9 6.3 14.8 10.8 19.5 7.2 7.6 13.1 17.3 23.7 39.1 9.2 19.1 10.6 22.6 11.1 28.3.6 7.8 1.8 10.3 8 17.3 5.3 6.1 7.2 7.3 16.8 10.3 12.7 4.1 22.5 8.5 32.6 14.5 5.5 3.3 14.6 8.5 20.2 11.6 13.8 7.5 20.9 12 22.9 14.4 1.7 2 1.8 7.6.3 11.2-.7 1.7.2 1.8 9.7 1.8h10.3l6 4.9 6.1 4.8 1.2 8.5c.7 4.6 1.2 9.9 1.2 11.7 0 7.2-12.6 24.2-19 25.6-4.3 1-9-2.3-14.1-9.8l-4.2-6.2.6 5.2c.7 6.5 2.7 10.3 9 17.6 2.8 3.1 4.7 6.1 4.3 6.5-.4.4-1.9-.7-3.2-2.3-5.3-6.5-5.2-6.4-12-5.8l-6.3.6.4-7.4c.3-4.1.5-9.5.5-12.1 0-4.3.2-4.7 2.9-5.3 2.4-.5 3.1-1.3 4-5 .6-2.4 1.5-4.7 2.1-5 .5-.3 1-2.4 1-4.6 0-3.8-.3-4.1-4.5-6-2.4-1.1-5-2.8-5.7-3.7-2.7-3.8-6.8-3.8-6.8-.1 0 1-.4 1.9-1 1.9-.5 0-1-1.2-1-2.8 0-1.5-.6-3.6-1.4-4.7-.8-1.2-1.5-5.4-1.7-10.5-.2-4.7-.6-9-.8-9.5-.3-.6-.6-1.2-.6-1.5 0-.3-.6-1.4-1.2-2.5-1.9-3.3-4.3-.2-4.3 5.6 0 2.6-.4 5-.9 5.4-.5.3-4.2-3.4-8.2-8.2-4-4.9-7.6-9-7.9-9.3-.3-.3-.6-2.8-.7-5.5-.1-3.6-.7-5.3-1.9-6-1-.6-2.8-2.1-4-3.3l-2.3-2.4-3.9 2.8c-3 2.2-4.2 3.9-4.9 7.1-.6 2.3-.6 4-.2 3.7.5-.3.9-.1.9.3 0 .5-4.7 5.5-10.5 11.3l-10.4 10.4-.3-6.9c-.2-5.1-.7-7.1-2-7.9-3.3-2-4.7 1.8-4.8 12.6 0 9-.2 9.9-2.7 12.9-2.6 3-2.8 3.1-3.3 1.1-.3-1.1-3.9-5.6-8-9.9-7.7-7.9-16-18.3-16-19.8s7.8 6.6 15.7 16.3c4.2 5.1 7.7 9.1 7.9 9 .4-.5-8.1-18-13.1-26.8-2.5-4.3-4.5-8.4-4.5-9 0-2.1-5.5-9.2-7.7-10.1-2.3-.8-2.4-1.2-2.1-10.1.3-8.6.4-9.2 2.6-9.8 2-.4 1.3-1.4-7.1-9.8l-9.4-9.4-4.6 4.9c-5.5 5.8-11.7 13.5-11.7 14.5 0 .5.7.8 1.5.8 2.1 0 2.2 17.8.2 18.6-.8.3-3.6 3.5-6.3 7.2-4.6 6.3-13.8 18.3-18.7 24.4-2.5 3.3-3.7 3.5-3.7 1 0-2.1-3.8-4.2-7.3-4.2-1.2 0-7.3-.7-13.6-1.7l-11.3-1.8.6-4.9c.6-5.7.4-5.3 3.6-5.8 2.4-.3 2.5-.1 2.2 4.9l-.3 5.3h3.5c3.1 0 3.5-.3 4.1-3.3 1-4.3 1.3-4.7 3.1-4 1.1.4 1.4 1.6 1.2 4.2-.3 3.4-.1 3.6 3.5 4.2 3.5.6 3.7.4 3.7-2.1 0-1.5-1-4-2.2-5.5-1.3-1.7-2.2-4.3-2.3-6.4 0-3.4-.3-3.7-4-4.5-2.2-.4-4.9-1.2-6-1.6-1.9-.8-1.9-.9.2-.9 2.3-.1 2.3-.2.7-7.3-.3-1.5-2.1-4.1-4-5.7-1.9-1.7-3.4-3.4-3.4-3.9s-1.1-4.3-2.4-8.3l-2.4-7.4-.8 4c-.4 2.2-1.7 5.3-3 6.8-1.3 1.6-2.7 3.9-3 5.2-.3 1.4-1.5 2.7-2.5 3-2.4.8-6.5 5-8.5 8.7-.8 1.6-2 2.8-2.7 2.8-.7 0-1.7.8-2.4 1.9-1.3 2-9.8 8.1-11.4 8.1-.5 0-.9.6-.9 1.3 0 .7-1.2 3.6-2.6 6.4-1.9 4-3.3 5.4-5.9 6.3l-3.3 1.1-.7 8.7c-.4 4.8-1.1 10.9-1.6 13.6-.5 2.7-.9 9.6-1 15.5-.1 15.9-1.3 26.6-3.2 28.6-1 .9-1.7 2.1-1.7 2.6s-.5.9-1.1.9c-.9 0-1-3-.5-10.8 1.4-23.6 2.6-44.9 2.6-47.7 0-2.2-1.4-4.7-4.9-9-4.6-5.6-4.9-6.3-5-11.9-.1-5.9-4.5-21.6-6-21.6-.5 0-2.5 4-4.5 8.8-2.6 6.5-3.6 10.2-3.6 14.3 0 5.1-.3 5.9-5 11.4-3.3 3.9-5 6.8-5 8.6v2.7l12.5.7 12.6.7-.3 6.2c-.3 5.8-.4 6.1-2.8 6.1s-2.5-.3-2.4-5.3l.2-5.2h-6.9l.2 5.1c.2 3.5-.2 5.3-1.2 6-2.5 1.6-3.4.3-3.7-5.3l-.3-5.6-3.6-.4c-1.9-.2-3.7 0-3.9.6-.2.6-.2 3.8 0 7.1s.4 8.1.5 10.7l.1 4.8h25.2l-.7 6.7c-.4 3.8-.9 7.1-1.2 7.5-.2.5-1.7.8-3.4.8-2.9 0-2.9 0-2.9-6v-6h-6.3l.6 6.5.6 6.5H231v-7c0-7.2-.5-7.9-4.4-6.4-1.4.5-1.6 2.8-1.6 14.9 0 7.9-.4 14.6-.9 14.9-.5.3-1.4-1.5-2.1-3.9-1.8-6.4-3.2-6.7-2.9-.6.2 2.8 0 5.4-.4 5.7-1.1 1.1-4.7-2.7-7.2-7.6-2.2-4.4-2.2-4.7-.8-11.9 1.2-5.6 1.3-7.9.4-9-3-4.4-6.4-13.8-6.3-17.8 0-.5-.4-1.3-.9-2-1.4-1.6 4.4-16.3 7.6-19.3 1.4-1.3 2.5-3.1 2.5-4 0-.9 1-2.5 2.1-3.6 2.8-2.5 5.4-6.6 11.9-18.9 2.9-5.5 6.4-12 7.7-14.4 5.5-10 15.3-38.3 15.3-44.3 0-1.3.9-6.6 2.1-11.8 1.1-5.2 2.2-10.4 2.3-11.5.5-4 4.6-10.3 8.2-12.6 15.8-10.1 17.9-11.1 28.4-13 11.7-2.2 40.8-5.9 50.5-6.5 9.7-.5 40.7-4.3 41.4-4.9.2-.3-.4-2.2-1.4-4.3-3.8-7.9-7.5-17.6-7.5-19.6.1-3 3.2 2.9 6.1 11.4zm16.6 110.6c-.3 3.1-.8 5.8-1 6-.5.5-6.5.8-10.9.5-2.7-.1-2.8-.3-2.8-6.1v-6h15.3l-.6 5.6zm95.9 55.4c5.2 5.8 9.4 11.2 9.4 12 0 1.6.5 1.6-20.6 1.9-6.1.1-14.9.6-19.4 1.1-5.9.7-8.7.6-9.7-.1-1.8-1.5-1.7-3.2.2-2.5.8.3 1.5.2 1.5-.3 0-1.4 7.3-1.9 9-.7 1.4 1 5.2 1.1 24.9.7l7.3-.1-3.8-4.8c-7.9-9.7-17.6-20.7-18.6-21.1-.5-.2-3.3 1.9-6.2 4.6-2.8 2.7-9 8.4-13.8 12.7-7.4 6.6-9 7.6-11.3 7-1.4-.3-2.5-.9-2.3-1.3.2-.4 7.5-7.5 16.3-15.9l15.9-15.2 5.9 5.7c3.3 3.2 10.2 10.5 15.3 16.3zm317.5-5.3c3.3 2 3.5 3.7 1.4 10.7-.8 2.7-1.5 6.2-1.5 7.8 0 2.6.3 2.8 4.3 2.9 2.3 0 5.8.7 7.7 1.5 3.3 1.4 3.1 1.4-5 .9l-8.6-.5-3.4 8.3c-1.9 4.5-3.9 8-4.5 7.7-.6-.3-.9-3.9-.6-8.8.2-5.4 0-8.2-.8-8.2-1.7 0-.2-2.6 2.5-4 1.3-.7 2.4-2.1 2.4-3.1s.4-2 .9-2.4c.9-.5 1.1-2.7 1.3-11.8.1-3.2.1-3.2 3.9-1zm-126.2 15c.2 4.3.4 10 .4 12.6.2 5.2 1 6 9 9.1l3.7 1.5v6.9c0 6.7-.1 7.1-3.3 9.5-2.9 2.2-11.7 4.7-11.7 3.3 0-3.9-3.4-21.5-4.6-23.8-1.2-2.4-1.5-4.5-1-8.7 1.2-10 4.6-19.8 6.5-18.7.4.3.9 4 1 8.3zm-271.6-4.8c1.6 1.6 0 2.6-1.7 1.2-2.2-1.8-3.8-.3-3.5 3.3.5 6.1-.7 7.6-6.2 7.6H397v-10.8l-6.5-.1H384v4.9c0 2.8-.3 5-.7 5-.5.1-2.7.5-5 .9-4.9 1-5.3.4-5.3-7 0-4.6-.2-4.9-3.2-5.9-2.4-.7 3.1-.9 19.5-.6 14.6.3 23.3.8 24 1.5zM866 573.5c0 .8 1.7 3.8 3.9 6.6 4.5 6 5.7 12 3.6 18.4-.8 2.2-1.8 6.6-2.4 9.8-1.7 9.6-2.3 9.7-6.6 1.3-3.3-6.5-3.9-8.8-4.6-17.4-.5-5.5-1.3-11.2-1.9-12.7-1.5-3.9-1.3-4.4 2.3-5.9 4.2-1.9 5.7-1.9 5.7-.1zM486.8 579c18.3 0 23.3.3 23 1.2-.3.7-1.1 1.3-1.9 1.3-1.4 0-2.7 5.2-2.8 11.6-.1 1.9-.7 4.3-1.4 5.3-1.3 1.8-1.4 1.8-3.1 0-1.6-1.5-1.8-2.9-1.3-9.7l.5-8-12.1.7c-18.6 1-42.9.8-44.1-.4-.7-.7-.3-1 1.2-1 1.2 0 2.2-.5 2.2-1.1 0-.9 2.3-1 8.3-.6 4.5.4 18.7.7 31.5.7zm-88 4.4c.3.3-.9.6-2.6.6-5.7 0-6 .5-5.4 7.6l.5 6.4h-10.1l-.7-7-.7-7h-4c-2.2 0-3.7-.4-3.3-.9.6-1 25.2-.7 26.3.3zM511 591c0 4 .5 6.4 1.6 7.4 1.9 1.9 3.1 18.3 1.5 20.6-2.8 4.1-8.3-9.6-6.1-15.4.5-1.5 1-6.6 1-11.2 0-5.4.4-8.3 1-7.9.6.3 1 3.3 1 6.5zm265.4-.8c.8 7.6 1.3 12.1 2.1 21.3.6 6.7.5 7.1-2.2 9.6-3.4 3.1-6.7 4.1-8.7 2.5-1.3-1-1.3-2 .6-8.5 1.7-6.4 1.9-8.2.9-12.5-1-4.7-.9-5.5 1.4-10 1.4-2.7 2.5-5.8 2.5-6.8s.6-1.8 1.4-1.8c.9 0 1.6 1.9 2 6.2zm-316.6 7l.3 7.8h-6c-4.4 0-6-.4-6.5-1.6-.8-2.2-.8-12.9.1-13.8.4-.4 3.2-.6 6.3-.4l5.5.3.3 7.7zm33.6-6.4c.6 1 .8 7.5.3 11.7-.3 2.8-.6 3-4.8 3.1-2.4.1-5-.3-5.6-.9-1.4-1-1.9-12.8-.6-14 .9-1 10.1-.9 10.7.1zm254.7 16c-.1 6.4-.6 12.1-1.1 12.6-.5.5-2.7 1.7-4.9 2.7-4 1.8-4.1 1.8-5.2-.3-1.3-2.4-.3-21.1 1.2-24 .8-1.5 8.7-4 9.8-3.1.3.2.4 5.6.2 12.1zm-27.9.6c-.3 9.7-1 11.3-3.9 10.1-1-.5-2.1-.8-2.5-.7-.3.1-1.1-2-1.6-4.5-1.2-5.6.7-12.6 4.1-15.4 3.4-2.7 4.4-.2 3.9 10.5zm-315.6-7.3c2 4 2.8 10 2.5 19.5-.1 3.1-2.8 5.5-4 3.6-.3-.5-3.1-1.3-6.1-1.8l-5.5-.9-.3-8.1c-.3-7.5-.1-8.4 2.3-11.2 2.3-2.8 4.3-3.6 8.3-3.8.7 0 2 1.2 2.8 2.7zm430.2 8.3c.7 3.5 1.5 9.8 1.8 13.9.6 6.5 1 7.6 2.8 8.1 1.9.5 1.7.9-1.9 2.9-2.6 1.5-3.9 2.9-3.7 4 .2.9-.2 1.7-.8 1.7-.5 0-1-.6-1-1.3 0-1.6-3.4-3.3-8.3-4.2-2.3-.5-3.8-1.5-4.6-3.1-1.8-4.1-1.3-6.2 2.7-9.8 2.4-2.2 5-6.2 7.1-11 1.8-4.2 3.7-7.6 4-7.6.4 0 1.3 2.9 1.9 6.4zm-666.9.5c1.4.9 4.2 10 3.4 11.3-.2.5-2.1.8-4.1.8-3.2 0-6.6-.7-19.1-3.6l-2.5-.5 3.5-3.2c1.9-1.8 4.6-3.7 5.9-4.4 3-1.4 10.9-1.6 12.9-.4zm247.5 7.7c.3 2.6.6 7.2.6 10.2v5.5l8.8-.6 8.7-.5-4.5 2c-7.1 3.1-13.9 3.8-28.3 2.8-14.3-1.1-17.3-1.6-25.7-4.9-3-1.1-6.8-2.1-8.5-2.2-1.6 0-4.8-.6-7-1.4l-4-1.3 7-.1c4 0 10 .8 13.8 1.8l6.9 1.9-.5-3.2c-.5-3.4 1.3-13.6 2.4-13.6.4 0 1 3.8 1.4 8.4l.7 8.4 6.2 1.1c3.5.6 9.6 1.1 13.8 1.1h7.5l-.8-4.8c-1.1-6.4-1.1-15.2 0-15.2.4 0 1.1 2.1 1.5 4.6zm79.3 10.9c4.3.8 11.4 1.5 15.8 1.6 6.6.1 7.5.2 5 1-3.5 1.2-46.1.2-49.5-1.1-.3-.1 1.1-.8 3-1.5 4.7-1.8 16.1-1.8 25.7 0zm-353.9 31.7c-.3.7-3.5 3.3-7.2 5.8l-6.7 4.5 6.7.3c4.7.2 7-.1 7.5-1 .7-1 1.1-1 2.1 0s1 1.5.1 2c-.6.4-1.2 2.7-1.1 5 0 5.1-1.7 6.8-7.9 7.8-4.8.7-6.3.1-6.3-2.8 0-3.1-3.4-8.1-7.2-10.3-2.6-1.5-5.2-2-12.4-2-9.6 0-9.2-.2-19.1 7.1-2.1 1.5-2.4 1.4-5.7-1.1-2-1.5-3.4-3.1-3.1-3.5.6-1 31.5-8.6 44.5-11 11.8-2.2 16.3-2.4 15.8-.8z"/></svg>